<?xml version="1.0" standalone="no" ?>
<!DOCTYPE svg PUBLIC "-//W3C//DTD SVG 1.1//EN" "http://www.w3.org/Graphics/SVG/1.1/DTD/svg11.dtd">
<svg width="800px" height="800px" xmlns="http://www.w3.org/2000/svg" version="1.1" >
	<rect x="0" y="0" width="800" height="800" fill="rgb(255,255,255)" stroke-width="2" stroke="rgb(0,0,0)" />
	<rect x="706.665" y="137.101" width="8" height="8" fill="rgb(220,220,220)" stroke-width="1" stroke="rgb(220,220,220)" />
	<rect x="463.307" y="295.907" width="8" height="8" fill="rgb(220,220,220)" stroke-width="1" stroke="rgb(220,220,220)" />
	<rect x="732.713" y="179.879" width="8" height="8" fill="rgb(220,220,220)" stroke-width="1" stroke="rgb(220,220,220)" />
	<rect x="667.123" y="74.1219" width="8" height="8" fill="rgb(220,220,220)" stroke-width="1" stroke="rgb(220,220,220)" />
	<rect x="400.253" y="69.6394" width="8" height="8" fill="rgb(220,220,220)" stroke-width="1" stroke="rgb(220,220,220)" />
	<rect x="565.327" y="115.565" width="8" height="8" fill="rgb(220,220,220)" stroke-width="1" stroke="rgb(220,220,220)" />
	<rect x="55.3787" y="70.4579" width="8" height="8" fill="rgb(220,220,220)" stroke-width="1" stroke="rgb(220,220,220)" />
	<rect x="302.013" y="8.64814" width="8" height="8" fill="rgb(220,220,220)" stroke-width="1" stroke="rgb(220,220,220)" />
	<rect x="693.796" y="86.2854" width="8" height="8" fill="rgb(220,220,220)" stroke-width="1" stroke="rgb(220,220,220)" />
	<rect x="494.596" y="42.1212" width="8" height="8" fill="rgb(220,220,220)" stroke-width="1" stroke="rgb(220,220,220)" />
	<rect x="666.756" y="226.478" width="8" height="8" fill="rgb(220,220,220)" stroke-width="1" stroke="rgb(220,220,220)" />
	<rect x="173.598" y="153.413" width="8" height="8" fill="rgb(220,220,220)" stroke-width="1" stroke="rgb(220,220,220)" />
	<rect x="657.425" y="309.712" width="8" height="8" fill="rgb(220,220,220)" stroke-width="1" stroke="rgb(220,220,220)" />
	<rect x="147.591" y="279.988" width="8" height="8" fill="rgb(220,220,220)" stroke-width="1" stroke="rgb(220,220,220)" />
	<rect x="240.292" y="24.8379" width="8" height="8" fill="rgb(220,220,220)" stroke-width="1" stroke="rgb(220,220,220)" />
	<rect x="590.371" y="105.135" width="8" height="8" fill="rgb(220,220,220)" stroke-width="1" stroke="rgb(220,220,220)" />
	<rect x="109.821" y="256.851" width="8" height="8" fill="rgb(220,220,220)" stroke-width="1" stroke="rgb(220,220,220)" />
	<rect x="714.439" y="110.495" width="8" height="8" fill="rgb(220,220,220)" stroke-width="1" stroke="rgb(220,220,220)" />
	<rect x="333.88" y="14.5295" width="8" height="8" fill="rgb(220,220,220)" stroke-width="1" stroke="rgb(220,220,220)" />
	<rect x="27.6752" y="73.2582" width="8" height="8" fill="rgb(220,220,220)" stroke-width="1" stroke="rgb(220,220,220)" />
	<rect x="481.348" y="0.867319" width="8" height="8" fill="rgb(220,220,220)" stroke-width="1" stroke="rgb(220,220,220)" />
	<rect x="643.094" y="49.1791" width="8" height="8" fill="rgb(220,220,220)" stroke-width="1" stroke="rgb(220,220,220)" />
	<rect x="84.2245" y="88.5591" width="8" height="8" fill="rgb(220,220,220)" stroke-width="1" stroke="rgb(220,220,220)" />
	<rect x="0.88366" y="214.532" width="8" height="8" fill="rgb(220,220,220)" stroke-width="1" stroke="rgb(220,220,220)" />
	<rect x="389.478" y="113.507" width="8" height="8" fill="rgb(220,220,220)" stroke-width="1" stroke="rgb(220,220,220)" />
	<rect x="523.555" y="69.5796" width="8" height="8" fill="rgb(220,220,220)" stroke-width="1" stroke="rgb(220,220,220)" />
	<rect x="6.44627" y="218.931" width="8" height="8" fill="rgb(220,220,220)" stroke-width="1" stroke="rgb(220,220,220)" />
	<rect x="535.939" y="35.6462" width="8" height="8" fill="rgb(220,220,220)" stroke-width="1" stroke="rgb(220,220,220)" />
	<rect x="757.676" y="153.083" width="8" height="8" fill="rgb(220,220,220)" stroke-width="1" stroke="rgb(220,220,220)" />
	<rect x="359.177" y="42.743" width="8" height="8" fill="rgb(220,220,220)" stroke-width="1" stroke="rgb(220,220,220)" />
	<rect x="611.927" y="299.383" width="8" height="8" fill="rgb(220,220,220)" stroke-width="1" stroke="rgb(220,220,220)" />
	<rect x="76.6331" y="62.8963" width="8" height="8" fill="rgb(220,220,220)" stroke-width="1" stroke="rgb(220,220,220)" />
	<rect x="20.8767" y="187.731" width="8" height="8" fill="rgb(220,220,220)" stroke-width="1" stroke="rgb(220,220,220)" />
	<rect x="562.426" y="289.113" width="8" height="8" fill="rgb(220,220,220)" stroke-width="1" stroke="rgb(220,220,220)" />
	<rect x="598.414" y="150.45" width="8" height="8" fill="rgb(220,220,220)" stroke-width="1" stroke="rgb(220,220,220)" />
	<rect x="704.121" y="290.604" width="8" height="8" fill="rgb(220,220,220)" stroke-width="1" stroke="rgb(220,220,220)" />
	<rect x="622.161" y="76.8339" width="8" height="8" fill="rgb(220,220,220)" stroke-width="1" stroke="rgb(220,220,220)" />
	<rect x="182.332" y="24.9412" width="8" height="8" fill="rgb(220,220,220)" stroke-width="1" stroke="rgb(220,220,220)" />
	<rect x="203.858" y="142.415" width="8" height="8" fill="rgb(220,220,220)" stroke-width="1" stroke="rgb(220,220,220)" />
	<rect x="178.965" y="73.172" width="8" height="8" fill="rgb(220,220,220)" stroke-width="1" stroke="rgb(220,220,220)" />
	<rect x="5.14418" y="304.924" width="8" height="8" fill="rgb(220,220,220)" stroke-width="1" stroke="rgb(220,220,220)" />
	<rect x="143.944" y="65.5485" width="8" height="8" fill="rgb(220,220,220)" stroke-width="1" stroke="rgb(220,220,220)" />
	<rect x="142.754" y="157.659" width="8" height="8" fill="rgb(220,220,220)" stroke-width="1" stroke="rgb(220,220,220)" />
	<rect x="679.156" y="260.366" width="8" height="8" fill="rgb(220,220,220)" stroke-width="1" stroke="rgb(220,220,220)" />
	<rect x="167.209" y="286.035" width="8" height="8" fill="rgb(220,220,220)" stroke-width="1" stroke="rgb(220,220,220)" />
	<rect x="710.492" y="121.127" width="8" height="8" fill="rgb(220,220,220)" stroke-width="1" stroke="rgb(220,220,220)" />
	<rect x="655.136" y="152.455" width="8" height="8" fill="rgb(220,220,220)" stroke-width="1" stroke="rgb(220,220,220)" />
	<rect x="758.647" y="140.63" width="8" height="8" fill="rgb(220,220,220)" stroke-width="1" stroke="rgb(220,220,220)" />
	<rect x="289.788" y="304.925" width="8" height="8" fill="rgb(220,220,220)" stroke-width="1" stroke="rgb(220,220,220)" />
	<rect x="503.062" y="279.531" width="8" height="8" fill="rgb(220,220,220)" stroke-width="1" stroke="rgb(220,220,220)" />
	<rect x="41.631" y="101.832" width="8" height="8" fill="rgb(220,220,220)" stroke-width="1" stroke="rgb(220,220,220)" />
	<rect x="401.528" y="92.0562" width="8" height="8" fill="rgb(220,220,220)" stroke-width="1" stroke="rgb(220,220,220)" />
	<rect x="23.3638" y="273.152" width="8" height="8" fill="rgb(220,220,220)" stroke-width="1" stroke="rgb(220,220,220)" />
	<rect x="200.82" y="182.672" width="8" height="8" fill="rgb(220,220,220)" stroke-width="1" stroke="rgb(220,220,220)" />
	<rect x="355.341" y="128.785" width="8" height="8" fill="rgb(220,220,220)" stroke-width="1" stroke="rgb(220,220,220)" />
	<rect x="17.1265" y="152.989" width="8" height="8" fill="rgb(220,220,220)" stroke-width="1" stroke="rgb(220,220,220)" />
	<rect x="337.269" y="104.012" width="8" height="8" fill="rgb(220,220,220)" stroke-width="1" stroke="rgb(220,220,220)" />
	<rect x="677.861" y="63.5736" width="8" height="8" fill="rgb(220,220,220)" stroke-width="1" stroke="rgb(220,220,220)" />
	<rect x="375.13" y="50.9254" width="8" height="8" fill="rgb(220,220,220)" stroke-width="1" stroke="rgb(220,220,220)" />
	<rect x="278.063" y="256.611" width="8" height="8" fill="rgb(220,220,220)" stroke-width="1" stroke="rgb(220,220,220)" />
	<rect x="495.287" y="254.922" width="8" height="8" fill="rgb(220,220,220)" stroke-width="1" stroke="rgb(220,220,220)" />
	<rect x="255.822" y="122.156" width="8" height="8" fill="rgb(220,220,220)" stroke-width="1" stroke="rgb(220,220,220)" />
	<rect x="214.125" y="61.0131" width="8" height="8" fill="rgb(220,220,220)" stroke-width="1" stroke="rgb(220,220,220)" />
	<rect x="20.438" y="290.14" width="8" height="8" fill="rgb(220,220,220)" stroke-width="1" stroke="rgb(220,220,220)" />
	<rect x="378.908" y="48.7801" width="8" height="8" fill="rgb(220,220,220)" stroke-width="1" stroke="rgb(220,220,220)" />
	<rect x="418.461" y="238.438" width="8" height="8" fill="rgb(220,220,220)" stroke-width="1" stroke="rgb(220,220,220)" />
	<rect x="234.986" y="103.482" width="8" height="8" fill="rgb(220,220,220)" stroke-width="1" stroke="rgb(220,220,220)" />
	<rect x="475.911" y="73.2225" width="8" height="8" fill="rgb(220,220,220)" stroke-width="1" stroke="rgb(220,220,220)" />
	<rect x="10.1671" y="230.107" width="8" height="8" fill="rgb(220,220,220)" stroke-width="1" stroke="rgb(220,220,220)" />
	<rect x="743.96" y="106.107" width="8" height="8" fill="rgb(220,220,220)" stroke-width="1" stroke="rgb(220,220,220)" />
	<rect x="507.453" y="60.8851" width="8" height="8" fill="rgb(220,220,220)" stroke-width="1" stroke="rgb(220,220,220)" />
	<rect x="38.5161" y="253.745" width="8" height="8" fill="rgb(220,220,220)" stroke-width="1" stroke="rgb(220,220,220)" />
	<rect x="641.247" y="172.921" width="8" height="8" fill="rgb(220,220,220)" stroke-width="1" stroke="rgb(220,220,220)" />
	<rect x="288.774" y="154.727" width="8" height="8" fill="rgb(220,220,220)" stroke-width="1" stroke="rgb(220,220,220)" />
	<rect x="274.59" y="164.346" width="8" height="8" fill="rgb(220,220,220)" stroke-width="1" stroke="rgb(220,220,220)" />
	<rect x="300.147" y="22.6291" width="8" height="8" fill="rgb(220,220,220)" stroke-width="1" stroke="rgb(220,220,220)" />
	<rect x="523.478" y="143.535" width="8" height="8" fill="rgb(220,220,220)" stroke-width="1" stroke="rgb(220,220,220)" />
	<rect x="147.8" y="264.885" width="8" height="8" fill="rgb(220,220,220)" stroke-width="1" stroke="rgb(220,220,220)" />
	<rect x="723.616" y="152.117" width="8" height="8" fill="rgb(220,220,220)" stroke-width="1" stroke="rgb(220,220,220)" />
	<rect x="-4.4666" y="104.012" width="8" height="8" fill="rgb(220,220,220)" stroke-width="1" stroke="rgb(220,220,220)" />
	<rect x="183.29" y="304.971" width="8" height="8" fill="rgb(220,220,220)" stroke-width="1" stroke="rgb(220,220,220)" />
	<rect x="550.672" y="232.56" width="8" height="8" fill="rgb(220,220,220)" stroke-width="1" stroke="rgb(220,220,220)" />
	<rect x="488.876" y="8.23539" width="8" height="8" fill="rgb(220,220,220)" stroke-width="1" stroke="rgb(220,220,220)" />
	<rect x="583.191" y="274.111" width="8" height="8" fill="rgb(220,220,220)" stroke-width="1" stroke="rgb(220,220,220)" />
	<rect x="731.475" y="291.677" width="8" height="8" fill="rgb(220,220,220)" stroke-width="1" stroke="rgb(220,220,220)" />
	<rect x="521.319" y="3.01441" width="8" height="8" fill="rgb(220,220,220)" stroke-width="1" stroke="rgb(220,220,220)" />
	<rect x="26.4051" y="28.5089" width="8" height="8" fill="rgb(220,220,220)" stroke-width="1" stroke="rgb(220,220,220)" />
	<rect x="577.812" y="277.024" width="8" height="8" fill="rgb(220,220,220)" stroke-width="1" stroke="rgb(220,220,220)" />
	<rect x="467.527" y="284.155" width="8" height="8" fill="rgb(220,220,220)" stroke-width="1" stroke="rgb(220,220,220)" />
	<rect x="665.61" y="66.7403" width="8" height="8" fill="rgb(220,220,220)" stroke-width="1" stroke="rgb(220,220,220)" />
	<rect x="667.975" y="52.7515" width="8" height="8" fill="rgb(220,220,220)" stroke-width="1" stroke="rgb(220,220,220)" />
	<rect x="575.323" y="17.8716" width="8" height="8" fill="rgb(220,220,220)" stroke-width="1" stroke="rgb(220,220,220)" />
	<rect x="313.059" y="309.635" width="8" height="8" fill="rgb(220,220,220)" stroke-width="1" stroke="rgb(220,220,220)" />
	<rect x="445.077" y="209.673" width="8" height="8" fill="rgb(220,220,220)" stroke-width="1" stroke="rgb(220,220,220)" />
	<rect x="565.821" y="147.448" width="8" height="8" fill="rgb(220,220,220)" stroke-width="1" stroke="rgb(220,220,220)" />
	<rect x="106.274" y="153.963" width="8" height="8" fill="rgb(220,220,220)" stroke-width="1" stroke="rgb(220,220,220)" />
	<rect x="516.873" y="104.482" width="8" height="8" fill="rgb(220,220,220)" stroke-width="1" stroke="rgb(220,220,220)" />
	<rect x="63.3481" y="7.18467" width="8" height="8" fill="rgb(220,220,220)" stroke-width="1" stroke="rgb(220,220,220)" />
	<rect x="25.3824" y="180.568" width="8" height="8" fill="rgb(220,220,220)" stroke-width="1" stroke="rgb(220,220,220)" />
	<rect x="779.132" y="15.9102" width="8" height="8" fill="rgb(220,220,220)" stroke-width="1" stroke="rgb(220,220,220)" />
	<rect x="774.077" y="285.019" width="8" height="8" fill="rgb(220,220,220)" stroke-width="1" stroke="rgb(220,220,220)" />
	<rect x="450.941" y="51.0702" width="8" height="8" fill="rgb(220,220,220)" stroke-width="1" stroke="rgb(220,220,220)" />
	<rect x="546.066" y="287.751" width="8" height="8" fill="rgb(220,220,220)" stroke-width="1" stroke="rgb(220,220,220)" />
	<rect x="728.043" y="23.9016" width="8" height="8" fill="rgb(220,220,220)" stroke-width="1" stroke="rgb(220,220,220)" />
	<rect x="30.9844" y="98.3123" width="8" height="8" fill="rgb(220,220,220)" stroke-width="1" stroke="rgb(220,220,220)" />
	<rect x="443.886" y="204.448" width="8" height="8" fill="rgb(220,220,220)" stroke-width="1" stroke="rgb(220,220,220)" />
	<rect x="85.4307" y="282.057" width="8" height="8" fill="rgb(220,220,220)" stroke-width="1" stroke="rgb(220,220,220)" />
	<rect x="248.006" y="295.635" width="8" height="8" fill="rgb(220,220,220)" stroke-width="1" stroke="rgb(220,220,220)" />
	<rect x="250.647" y="234.476" width="8" height="8" fill="rgb(220,220,220)" stroke-width="1" stroke="rgb(220,220,220)" />
	<rect x="28.644" y="63.4284" width="8" height="8" fill="rgb(220,220,220)" stroke-width="1" stroke="rgb(220,220,220)" />
	<rect x="-5.08027" y="104.085" width="8" height="8" fill="rgb(220,220,220)" stroke-width="1" stroke="rgb(220,220,220)" />
	<rect x="115.471" y="239.881" width="8" height="8" fill="rgb(220,220,220)" stroke-width="1" stroke="rgb(220,220,220)" />
	<rect x="103.505" y="132.304" width="8" height="8" fill="rgb(220,220,220)" stroke-width="1" stroke="rgb(220,220,220)" />
	<rect x="304.804" y="205.87" width="8" height="8" fill="rgb(220,220,220)" stroke-width="1" stroke="rgb(220,220,220)" />
	<rect x="241.568" y="166.487" width="8" height="8" fill="rgb(220,220,220)" stroke-width="1" stroke="rgb(220,220,220)" />
	<rect x="86.841" y="104.283" width="8" height="8" fill="rgb(220,220,220)" stroke-width="1" stroke="rgb(220,220,220)" />
	<rect x="522.876" y="75.0591" width="8" height="8" fill="rgb(220,220,220)" stroke-width="1" stroke="rgb(220,220,220)" />
	<rect x="328.087" y="262.154" width="8" height="8" fill="rgb(220,220,220)" stroke-width="1" stroke="rgb(220,220,220)" />
	<rect x="411.788" y="135.626" width="8" height="8" fill="rgb(220,220,220)" stroke-width="1" stroke="rgb(220,220,220)" />
	<rect x="685.653" y="242.623" width="8" height="8" fill="rgb(220,220,220)" stroke-width="1" stroke="rgb(220,220,220)" />
	<rect x="354.734" y="243.24" width="8" height="8" fill="rgb(220,220,220)" stroke-width="1" stroke="rgb(220,220,220)" />
	<rect x="524.517" y="161.506" width="8" height="8" fill="rgb(220,220,220)" stroke-width="1" stroke="rgb(220,220,220)" />
	<rect x="569.62" y="243.028" width="8" height="8" fill="rgb(220,220,220)" stroke-width="1" stroke="rgb(220,220,220)" />
	<rect x="619.177" y="34.5757" width="8" height="8" fill="rgb(220,220,220)" stroke-width="1" stroke="rgb(220,220,220)" />
	<rect x="207.89" y="53.889" width="8" height="8" fill="rgb(220,220,220)" stroke-width="1" stroke="rgb(220,220,220)" />
	<rect x="242.317" y="279.584" width="8" height="8" fill="rgb(220,220,220)" stroke-width="1" stroke="rgb(220,220,220)" />
	<rect x="417.434" y="200.402" width="8" height="8" fill="rgb(220,220,220)" stroke-width="1" stroke="rgb(220,220,220)" />
	<rect x="749.753" y="198.84" width="8" height="8" fill="rgb(220,220,220)" stroke-width="1" stroke="rgb(220,220,220)" />
	<rect x="331.962" y="172.205" width="8" height="8" fill="rgb(220,220,220)" stroke-width="1" stroke="rgb(220,220,220)" />
	<rect x="430.33" y="273.594" width="8" height="8" fill="rgb(220,220,220)" stroke-width="1" stroke="rgb(220,220,220)" />
	<rect x="282.48" y="162.22" width="8" height="8" fill="rgb(220,220,220)" stroke-width="1" stroke="rgb(220,220,220)" />
	<rect x="22.5974" y="200.317" width="8" height="8" fill="rgb(220,220,220)" stroke-width="1" stroke="rgb(220,220,220)" />
	<rect x="674.812" y="194.212" width="8" height="8" fill="rgb(220,220,220)" stroke-width="1" stroke="rgb(220,220,220)" />
	<rect x="522.644" y="118.969" width="8" height="8" fill="rgb(220,220,220)" stroke-width="1" stroke="rgb(220,220,220)" />
	<rect x="581.944" y="101.2" width="8" height="8" fill="rgb(220,220,220)" stroke-width="1" stroke="rgb(220,220,220)" />
	<rect x="250.262" y="180.675" width="8" height="8" fill="rgb(220,220,220)" stroke-width="1" stroke="rgb(220,220,220)" />
	<rect x="395.673" y="44.4799" width="8" height="8" fill="rgb(220,220,220)" stroke-width="1" stroke="rgb(220,220,220)" />
	<rect x="767.073" y="67.7416" width="8" height="8" fill="rgb(220,220,220)" stroke-width="1" stroke="rgb(220,220,220)" />
	<rect x="518.48" y="277.026" width="8" height="8" fill="rgb(220,220,220)" stroke-width="1" stroke="rgb(220,220,220)" />
	<rect x="288.665" y="253.027" width="8" height="8" fill="rgb(220,220,220)" stroke-width="1" stroke="rgb(220,220,220)" />
	<rect x="726.499" y="40.1275" width="8" height="8" fill="rgb(220,220,220)" stroke-width="1" stroke="rgb(220,220,220)" />
	<rect x="773.751" y="279.394" width="8" height="8" fill="rgb(220,220,220)" stroke-width="1" stroke="rgb(220,220,220)" />
	<rect x="312.827" y="53.3443" width="8" height="8" fill="rgb(220,220,220)" stroke-width="1" stroke="rgb(220,220,220)" />
	<rect x="440.259" y="168.123" width="8" height="8" fill="rgb(220,220,220)" stroke-width="1" stroke="rgb(220,220,220)" />
	<rect x="116.48" y="223.216" width="8" height="8" fill="rgb(220,220,220)" stroke-width="1" stroke="rgb(220,220,220)" />
	<rect x="124.85" y="227.697" width="8" height="8" fill="rgb(220,220,220)" stroke-width="1" stroke="rgb(220,220,220)" />
	<rect x="788.365" y="234.151" width="8" height="8" fill="rgb(220,220,220)" stroke-width="1" stroke="rgb(220,220,220)" />
	<rect x="439.468" y="104.404" width="8" height="8" fill="rgb(220,220,220)" stroke-width="1" stroke="rgb(220,220,220)" />
	<rect x="445.825" y="102.204" width="8" height="8" fill="rgb(220,220,220)" stroke-width="1" stroke="rgb(220,220,220)" />
	<rect x="33.6988" y="66.9366" width="8" height="8" fill="rgb(220,220,220)" stroke-width="1" stroke="rgb(220,220,220)" />
	<rect x="436.889" y="34.7599" width="8" height="8" fill="rgb(220,220,220)" stroke-width="1" stroke="rgb(220,220,220)" />
	<rect x="167.739" y="109.059" width="8" height="8" fill="rgb(220,220,220)" stroke-width="1" stroke="rgb(220,220,220)" />
	<rect x="85.325" y="290.653" width="8" height="8" fill="rgb(220,220,220)" stroke-width="1" stroke="rgb(220,220,220)" />
	<rect x="293.575" y="309.542" width="8" height="8" fill="rgb(220,220,220)" stroke-width="1" stroke="rgb(220,220,220)" />
	<rect x="297.034" y="269.843" width="8" height="8" fill="rgb(220,220,220)" stroke-width="1" stroke="rgb(220,220,220)" />
	<rect x="329.218" y="22.4117" width="8" height="8" fill="rgb(220,220,220)" stroke-width="1" stroke="rgb(220,220,220)" />
	<rect x="616.624" y="93.6567" width="8" height="8" fill="rgb(220,220,220)" stroke-width="1" stroke="rgb(220,220,220)" />
	<rect x="771.766" y="280.242" width="8" height="8" fill="rgb(220,220,220)" stroke-width="1" stroke="rgb(220,220,220)" />
	<rect x="302.541" y="203.114" width="8" height="8" fill="rgb(220,220,220)" stroke-width="1" stroke="rgb(220,220,220)" />
	<rect x="287.835" y="95.9532" width="8" height="8" fill="rgb(220,220,220)" stroke-width="1" stroke="rgb(220,220,220)" />
	<rect x="223.672" y="218.375" width="8" height="8" fill="rgb(220,220,220)" stroke-width="1" stroke="rgb(220,220,220)" />
	<rect x="169.817" y="174.168" width="8" height="8" fill="rgb(220,220,220)" stroke-width="1" stroke="rgb(220,220,220)" />
	<rect x="5.22707" y="101.598" width="8" height="8" fill="rgb(220,220,220)" stroke-width="1" stroke="rgb(220,220,220)" />
	<rect x="365.838" y="93.155" width="8" height="8" fill="rgb(220,220,220)" stroke-width="1" stroke="rgb(220,220,220)" />
	<rect x="593.696" y="86.8285" width="8" height="8" fill="rgb(220,220,220)" stroke-width="1" stroke="rgb(220,220,220)" />
	<rect x="283.406" y="295.933" width="8" height="8" fill="rgb(220,220,220)" stroke-width="1" stroke="rgb(220,220,220)" />
	<rect x="66.9646" y="33.102" width="8" height="8" fill="rgb(220,220,220)" stroke-width="1" stroke="rgb(220,220,220)" />
	<rect x="20.2201" y="103.977" width="8" height="8" fill="rgb(220,220,220)" stroke-width="1" stroke="rgb(220,220,220)" />
	<rect x="294.403" y="196.027" width="8" height="8" fill="rgb(220,220,220)" stroke-width="1" stroke="rgb(220,220,220)" />
	<rect x="766.23" y="199.375" width="8" height="8" fill="rgb(220,220,220)" stroke-width="1" stroke="rgb(220,220,220)" />
	<rect x="-7.7048" y="250.713" width="8" height="8" fill="rgb(220,220,220)" stroke-width="1" stroke="rgb(220,220,220)" />
	<rect x="768.505" y="271.954" width="8" height="8" fill="rgb(220,220,220)" stroke-width="1" stroke="rgb(220,220,220)" />
	<rect x="740.675" y="38.1731" width="8" height="8" fill="rgb(220,220,220)" stroke-width="1" stroke="rgb(220,220,220)" />
	<rect x="551.258" y="0.382855" width="8" height="8" fill="rgb(220,220,220)" stroke-width="1" stroke="rgb(220,220,220)" />
	<rect x="317.426" y="104.736" width="8" height="8" fill="rgb(220,220,220)" stroke-width="1" stroke="rgb(220,220,220)" />
	<rect x="112.251" y="2.93708" width="8" height="8" fill="rgb(220,220,220)" stroke-width="1" stroke="rgb(220,220,220)" />
	<rect x="447.383" y="285.158" width="8" height="8" fill="rgb(220,220,220)" stroke-width="1" stroke="rgb(220,220,220)" />
	<rect x="694.556" y="62.0596" width="8" height="8" fill="rgb(220,220,220)" stroke-width="1" stroke="rgb(220,220,220)" />
	<rect x="578.312" y="91.9827" width="8" height="8" fill="rgb(220,220,220)" stroke-width="1" stroke="rgb(220,220,220)" />
	<rect x="712.055" y="138.963" width="8" height="8" fill="rgb(220,220,220)" stroke-width="1" stroke="rgb(220,220,220)" />
	<rect x="484.668" y="156.107" width="8" height="8" fill="rgb(220,220,220)" stroke-width="1" stroke="rgb(220,220,220)" />
	<rect x="207.984" y="82.6881" width="8" height="8" fill="rgb(220,220,220)" stroke-width="1" stroke="rgb(220,220,220)" />
	<rect x="394.548" y="60.3563" width="8" height="8" fill="rgb(220,220,220)" stroke-width="1" stroke="rgb(220,220,220)" />
	<rect x="291.893" y="309.574" width="8" height="8" fill="rgb(220,220,220)" stroke-width="1" stroke="rgb(220,220,220)" />
	<rect x="431.145" y="200.349" width="8" height="8" fill="rgb(220,220,220)" stroke-width="1" stroke="rgb(220,220,220)" />
	<rect x="168.686" y="13.8705" width="8" height="8" fill="rgb(220,220,220)" stroke-width="1" stroke="rgb(220,220,220)" />
	<rect x="496.493" y="68.7077" width="8" height="8" fill="rgb(220,220,220)" stroke-width="1" stroke="rgb(220,220,220)" />
	<rect x="483.566" y="267.061" width="8" height="8" fill="rgb(220,220,220)" stroke-width="1" stroke="rgb(220,220,220)" />
	<rect x="333.363" y="156.752" width="8" height="8" fill="rgb(220,220,220)" stroke-width="1" stroke="rgb(220,220,220)" />
	<rect x="780.347" y="23.8811" width="8" height="8" fill="rgb(220,220,220)" stroke-width="1" stroke="rgb(220,220,220)" />
	<rect x="424.903" y="293.006" width="8" height="8" fill="rgb(220,220,220)" stroke-width="1" stroke="rgb(220,220,220)" />
	<rect x="298.018" y="55.836" width="8" height="8" fill="rgb(220,220,220)" stroke-width="1" stroke="rgb(220,220,220)" />
	<rect x="397.541" y="43.9655" width="8" height="8" fill="rgb(220,220,220)" stroke-width="1" stroke="rgb(220,220,220)" />
	<rect x="465.298" y="274.699" width="8" height="8" fill="rgb(220,220,220)" stroke-width="1" stroke="rgb(220,220,220)" />
	<rect x="549.964" y="296.368" width="8" height="8" fill="rgb(220,220,220)" stroke-width="1" stroke="rgb(220,220,220)" />
	<rect x="565.603" y="28.4502" width="8" height="8" fill="rgb(220,220,220)" stroke-width="1" stroke="rgb(220,220,220)" />
	<rect x="700.872" y="52.8946" width="8" height="8" fill="rgb(220,220,220)" stroke-width="1" stroke="rgb(220,220,220)" />
	<rect x="98.3347" y="179.742" width="8" height="8" fill="rgb(220,220,220)" stroke-width="1" stroke="rgb(220,220,220)" />
	<rect x="248.691" y="31.4805" width="8" height="8" fill="rgb(220,220,220)" stroke-width="1" stroke="rgb(220,220,220)" />
	<rect x="449.128" y="195.148" width="8" height="8" fill="rgb(220,220,220)" stroke-width="1" stroke="rgb(220,220,220)" />
	<rect x="400" y="320" width="80" height="80" fill="rgb(220,220,220)" stroke-width="1" stroke="rgb(220,220,220)" />
	<rect x="400" y="400" width="80" height="80" fill="rgb(220,220,220)" stroke-width="1" stroke="rgb(220,220,220)" />
	<rect x="400" y="480" width="80" height="80" fill="rgb(220,220,220)" stroke-width="1" stroke="rgb(220,220,220)" />
	<rect x="400" y="560" width="80" height="80" fill="rgb(220,220,220)" stroke-width="1" stroke="rgb(220,220,220)" />
	<rect x="400" y="640" width="80" height="80" fill="rgb(220,220,220)" stroke-width="1" stroke="rgb(220,220,220)" />
	<rect x="400" y="720" width="80" height="80" fill="rgb(220,220,220)" stroke-width="1" stroke="rgb(220,220,220)" />
	<circle cx="640" cy="640" r="8" fill="rgb(0,128,0)" stroke-width="1" stroke="rgb(0,128,0)" />
	<circle cx="160" cy="640" r="8" fill="rgb(0,0,255)" stroke-width="1" stroke="rgb(0,0,255)" />
	<polyline points="160,640 184,640 " fill="none" stroke-width="3" stroke="rgb(0,0,0)" />
	<polyline points="160,640 252.011,557.718 " fill="none" stroke-width="1" stroke="rgb(0,0,0)" />
	<circle cx="252.011" cy="557.718" r="8" fill="rgb(0,0,255)" stroke-width="1" stroke="rgb(0,0,255)" />
	<polyline points="252.011,557.718 248.681,533.951 " fill="none" stroke-width="3" stroke="rgb(0,0,0)" />
	<polyline points="252.011,557.718 253.669,450.54 " fill="none" stroke-width="1" stroke="rgb(0,0,0)" />
	<circle cx="253.669" cy="450.54" r="8" fill="rgb(0,0,255)" stroke-width="1" stroke="rgb(0,0,255)" />
	<polyline points="253.669,450.54 252.968,426.551 " fill="none" stroke-width="3" stroke="rgb(0,0,0)" />
	<polyline points="253.669,450.54 261.477,387.978 " fill="none" stroke-width="1" stroke="rgb(0,0,0)" />
	<circle cx="261.477" cy="387.978" r="8" fill="rgb(0,0,255)" stroke-width="1" stroke="rgb(0,0,255)" />
	<polyline points="261.477,387.978 253.041,365.51 " fill="none" stroke-width="3" stroke="rgb(0,0,0)" />
	<polyline points="261.477,387.978 248.487,309.006 " fill="none" stroke-width="1" stroke="rgb(0,0,0)" />
	<circle cx="248.487" cy="309.006" r="8" fill="rgb(0,0,255)" stroke-width="1" stroke="rgb(0,0,255)" />
	<polyline points="248.487,309.006 249.226,285.017 " fill="none" stroke-width="3" stroke="rgb(0,0,0)" />
	<polyline points="248.487,309.006 241.856,288.757 " fill="none" stroke-width="1" stroke="rgb(0,0,0)" />
	<circle cx="241.856" cy="288.757" r="8" fill="rgb(0,0,255)" stroke-width="1" stroke="rgb(0,0,255)" />
	<polyline points="241.856,288.757 256.774,269.957 " fill="none" stroke-width="3" stroke="rgb(0,0,0)" />
	<polyline points="241.856,288.757 342.193,270.511 " fill="none" stroke-width="1" stroke="rgb(0,0,0)" />
	<circle cx="342.193" cy="270.511" r="8" fill="rgb(153,99,102)" stroke-width="1" stroke="rgb(153,99,102)" />
	<polyline points="342.193,270.511 366.182,271.231 " fill="none" stroke-width="3" stroke="rgb(0,0,0)" />
	<polyline points="342.193,270.511 427.443,179.783 " fill="none" stroke-width="1" stroke="rgb(0,0,0)" />
	<circle cx="427.443" cy="179.783" r="8" fill="rgb(255,165,0)" stroke-width="1" stroke="rgb(255,165,0)" />
	<polyline points="427.443,179.783 432.23,156.265 " fill="none" stroke-width="3" stroke="rgb(0,0,0)" />
	<polyline points="427.443,179.783 492.905,148.953 " fill="none" stroke-width="1" stroke="rgb(0,0,0)" />
	<circle cx="492.905" cy="148.953" r="8" fill="rgb(255,165,0)" stroke-width="1" stroke="rgb(255,165,0)" />
	<polyline points="492.905,148.953 513.111,161.904 " fill="none" stroke-width="3" stroke="rgb(0,0,0)" />
	<polyline points="492.905,148.953 573.293,256.74 " fill="none" stroke-width="1" stroke="rgb(0,0,0)" />
	<circle cx="573.293" cy="256.74" r="8" fill="rgb(101,65,153)" stroke-width="1" stroke="rgb(101,65,153)" />
	<polyline points="573.293,256.74 579.944,279.8 " fill="none" stroke-width="3" stroke="rgb(0,0,0)" />
	<polyline points="573.293,256.74 614.055,333.656 " fill="none" stroke-width="1" stroke="rgb(0,0,0)" />
	<circle cx="614.055" cy="333.656" r="8" fill="rgb(101,65,153)" stroke-width="1" stroke="rgb(101,65,153)" />
	<polyline points="614.055,333.656 637.423,339.127 " fill="none" stroke-width="3" stroke="rgb(0,0,0)" />
	<polyline points="614.055,333.656 663.156,376.064 " fill="none" stroke-width="1" stroke="rgb(0,0,0)" />
	<circle cx="663.156" cy="376.064" r="8" fill="rgb(0,0,255)" stroke-width="1" stroke="rgb(0,0,255)" />
	<polyline points="663.156,376.064 659.589,399.797 " fill="none" stroke-width="3" stroke="rgb(0,0,0)" />
	<polyline points="663.156,376.064 610.117,482.234 " fill="none" stroke-width="1" stroke="rgb(0,0,0)" />
	<circle cx="610.117" cy="482.234" r="8" fill="rgb(0,0,255)" stroke-width="1" stroke="rgb(0,0,255)" />
	<polyline points="610.117,482.234 594.488,500.447 " fill="none" stroke-width="3" stroke="rgb(0,0,0)" />
	<polyline points="610.117,482.234 628.028,568.296 " fill="none" stroke-width="1" stroke="rgb(0,0,0)" />
	<circle cx="628.028" cy="568.296" r="8" fill="rgb(0,0,255)" stroke-width="1" stroke="rgb(0,0,255)" />
	<polyline points="628.028,568.296 651.158,574.698 " fill="none" stroke-width="3" stroke="rgb(0,0,0)" />
	<polyline points="628.028,568.296 646.127,637.782 " fill="none" stroke-width="1" stroke="rgb(0,0,0)" />
	<circle cx="646.127" cy="637.782" r="8" fill="rgb(0,0,255)" stroke-width="1" stroke="rgb(0,0,255)" />
	<polyline points="646.127,637.782 624.969,649.111 " fill="none" stroke-width="3" stroke="rgb(0,0,0)" />
</svg>
