<?xml version="1.0" standalone="no" ?>
<!DOCTYPE svg PUBLIC "-//W3C//DTD SVG 1.1//EN" "http://www.w3.org/Graphics/SVG/1.1/DTD/svg11.dtd">
<svg width="800px" height="800px" xmlns="http://www.w3.org/2000/svg" version="1.1" >
	<rect x="0" y="0" width="800" height="800" fill="rgb(255,255,255)" stroke-width="2" stroke="rgb(0,0,0)" />
	<rect x="133.707" y="468.866" width="8" height="8" fill="rgb(220,220,220)" stroke-width="1" stroke="rgb(220,220,220)" />
	<rect x="737.023" y="275.372" width="8" height="8" fill="rgb(220,220,220)" stroke-width="1" stroke="rgb(220,220,220)" />
	<rect x="12.1677" y="226.195" width="8" height="8" fill="rgb(220,220,220)" stroke-width="1" stroke="rgb(220,220,220)" />
	<rect x="179.287" y="726.919" width="8" height="8" fill="rgb(220,220,220)" stroke-width="1" stroke="rgb(220,220,220)" />
	<rect x="164.813" y="116.326" width="8" height="8" fill="rgb(220,220,220)" stroke-width="1" stroke="rgb(220,220,220)" />
	<rect x="412.528" y="70.6118" width="8" height="8" fill="rgb(220,220,220)" stroke-width="1" stroke="rgb(220,220,220)" />
	<rect x="89.6762" y="390.842" width="8" height="8" fill="rgb(220,220,220)" stroke-width="1" stroke="rgb(220,220,220)" />
	<rect x="386.069" y="216.667" width="8" height="8" fill="rgb(220,220,220)" stroke-width="1" stroke="rgb(220,220,220)" />
	<rect x="106.635" y="183.916" width="8" height="8" fill="rgb(220,220,220)" stroke-width="1" stroke="rgb(220,220,220)" />
	<rect x="249.575" y="595.758" width="8" height="8" fill="rgb(220,220,220)" stroke-width="1" stroke="rgb(220,220,220)" />
	<rect x="476.824" y="552.151" width="8" height="8" fill="rgb(220,220,220)" stroke-width="1" stroke="rgb(220,220,220)" />
	<rect x="731.127" y="607.209" width="8" height="8" fill="rgb(220,220,220)" stroke-width="1" stroke="rgb(220,220,220)" />
	<rect x="629.328" y="647.325" width="8" height="8" fill="rgb(220,220,220)" stroke-width="1" stroke="rgb(220,220,220)" />
	<rect x="328.579" y="47.0055" width="8" height="8" fill="rgb(220,220,220)" stroke-width="1" stroke="rgb(220,220,220)" />
	<rect x="577.627" y="601.218" width="8" height="8" fill="rgb(220,220,220)" stroke-width="1" stroke="rgb(220,220,220)" />
	<rect x="418.659" y="615.672" width="8" height="8" fill="rgb(220,220,220)" stroke-width="1" stroke="rgb(220,220,220)" />
	<rect x="574.611" y="107.383" width="8" height="8" fill="rgb(220,220,220)" stroke-width="1" stroke="rgb(220,220,220)" />
	<rect x="251.922" y="87.3206" width="8" height="8" fill="rgb(220,220,220)" stroke-width="1" stroke="rgb(220,220,220)" />
	<rect x="563.608" y="324.704" width="8" height="8" fill="rgb(220,220,220)" stroke-width="1" stroke="rgb(220,220,220)" />
	<rect x="559.377" y="447.957" width="8" height="8" fill="rgb(220,220,220)" stroke-width="1" stroke="rgb(220,220,220)" />
	<rect x="686.704" y="493.303" width="8" height="8" fill="rgb(220,220,220)" stroke-width="1" stroke="rgb(220,220,220)" />
	<rect x="126.333" y="733.368" width="8" height="8" fill="rgb(220,220,220)" stroke-width="1" stroke="rgb(220,220,220)" />
	<rect x="205.142" y="609.678" width="8" height="8" fill="rgb(220,220,220)" stroke-width="1" stroke="rgb(220,220,220)" />
	<rect x="612.119" y="424.475" width="8" height="8" fill="rgb(220,220,220)" stroke-width="1" stroke="rgb(220,220,220)" />
	<rect x="267.719" y="321.112" width="8" height="8" fill="rgb(220,220,220)" stroke-width="1" stroke="rgb(220,220,220)" />
	<rect x="15.5789" y="282.587" width="8" height="8" fill="rgb(220,220,220)" stroke-width="1" stroke="rgb(220,220,220)" />
	<rect x="197.171" y="55.817" width="8" height="8" fill="rgb(220,220,220)" stroke-width="1" stroke="rgb(220,220,220)" />
	<rect x="492.787" y="514.547" width="8" height="8" fill="rgb(220,220,220)" stroke-width="1" stroke="rgb(220,220,220)" />
	<rect x="267.038" y="504.796" width="8" height="8" fill="rgb(220,220,220)" stroke-width="1" stroke="rgb(220,220,220)" />
	<rect x="418.058" y="90.313" width="8" height="8" fill="rgb(220,220,220)" stroke-width="1" stroke="rgb(220,220,220)" />
	<rect x="529.989" y="54.2175" width="8" height="8" fill="rgb(220,220,220)" stroke-width="1" stroke="rgb(220,220,220)" />
	<rect x="693.938" y="192.603" width="8" height="8" fill="rgb(220,220,220)" stroke-width="1" stroke="rgb(220,220,220)" />
	<rect x="650.989" y="591.428" width="8" height="8" fill="rgb(220,220,220)" stroke-width="1" stroke="rgb(220,220,220)" />
	<rect x="8.67458" y="376.232" width="8" height="8" fill="rgb(220,220,220)" stroke-width="1" stroke="rgb(220,220,220)" />
	<rect x="7.27485" y="156.952" width="8" height="8" fill="rgb(220,220,220)" stroke-width="1" stroke="rgb(220,220,220)" />
	<rect x="279.079" y="303.122" width="8" height="8" fill="rgb(220,220,220)" stroke-width="1" stroke="rgb(220,220,220)" />
	<rect x="689.324" y="122.334" width="8" height="8" fill="rgb(220,220,220)" stroke-width="1" stroke="rgb(220,220,220)" />
	<rect x="8.13327" y="131.51" width="8" height="8" fill="rgb(220,220,220)" stroke-width="1" stroke="rgb(220,220,220)" />
	<rect x="377.683" y="512.416" width="8" height="8" fill="rgb(220,220,220)" stroke-width="1" stroke="rgb(220,220,220)" />
	<rect x="302.74" y="65.1336" width="8" height="8" fill="rgb(220,220,220)" stroke-width="1" stroke="rgb(220,220,220)" />
	<rect x="685.744" y="229.379" width="8" height="8" fill="rgb(220,220,220)" stroke-width="1" stroke="rgb(220,220,220)" />
	<rect x="258.089" y="612.788" width="8" height="8" fill="rgb(220,220,220)" stroke-width="1" stroke="rgb(220,220,220)" />
	<rect x="371.575" y="329.854" width="8" height="8" fill="rgb(220,220,220)" stroke-width="1" stroke="rgb(220,220,220)" />
	<rect x="116.224" y="105.926" width="8" height="8" fill="rgb(220,220,220)" stroke-width="1" stroke="rgb(220,220,220)" />
	<rect x="480.704" y="388.677" width="8" height="8" fill="rgb(220,220,220)" stroke-width="1" stroke="rgb(220,220,220)" />
	<rect x="527.291" y="669.075" width="8" height="8" fill="rgb(220,220,220)" stroke-width="1" stroke="rgb(220,220,220)" />
	<rect x="587.986" y="450.615" width="8" height="8" fill="rgb(220,220,220)" stroke-width="1" stroke="rgb(220,220,220)" />
	<rect x="401.323" y="538.094" width="8" height="8" fill="rgb(220,220,220)" stroke-width="1" stroke="rgb(220,220,220)" />
	<rect x="540.955" y="590.321" width="8" height="8" fill="rgb(220,220,220)" stroke-width="1" stroke="rgb(220,220,220)" />
	<rect x="470.924" y="569.367" width="8" height="8" fill="rgb(220,220,220)" stroke-width="1" stroke="rgb(220,220,220)" />
	<rect x="723.205" y="584.507" width="8" height="8" fill="rgb(220,220,220)" stroke-width="1" stroke="rgb(220,220,220)" />
	<rect x="398.616" y="320.128" width="8" height="8" fill="rgb(220,220,220)" stroke-width="1" stroke="rgb(220,220,220)" />
	<rect x="711.931" y="740.51" width="8" height="8" fill="rgb(220,220,220)" stroke-width="1" stroke="rgb(220,220,220)" />
	<rect x="649.082" y="626.876" width="8" height="8" fill="rgb(220,220,220)" stroke-width="1" stroke="rgb(220,220,220)" />
	<rect x="146.776" y="218.855" width="8" height="8" fill="rgb(220,220,220)" stroke-width="1" stroke="rgb(220,220,220)" />
	<rect x="464.327" y="277.806" width="8" height="8" fill="rgb(220,220,220)" stroke-width="1" stroke="rgb(220,220,220)" />
	<rect x="270.81" y="331.134" width="8" height="8" fill="rgb(220,220,220)" stroke-width="1" stroke="rgb(220,220,220)" />
	<rect x="86.5505" y="207.74" width="8" height="8" fill="rgb(220,220,220)" stroke-width="1" stroke="rgb(220,220,220)" />
	<rect x="457.145" y="379.955" width="8" height="8" fill="rgb(220,220,220)" stroke-width="1" stroke="rgb(220,220,220)" />
	<rect x="669.337" y="420.125" width="8" height="8" fill="rgb(220,220,220)" stroke-width="1" stroke="rgb(220,220,220)" />
	<rect x="367.214" y="791.454" width="8" height="8" fill="rgb(220,220,220)" stroke-width="1" stroke="rgb(220,220,220)" />
	<rect x="121.387" y="417.494" width="8" height="8" fill="rgb(220,220,220)" stroke-width="1" stroke="rgb(220,220,220)" />
	<rect x="114.008" y="-1.48989" width="8" height="8" fill="rgb(220,220,220)" stroke-width="1" stroke="rgb(220,220,220)" />
	<rect x="303.271" y="429.059" width="8" height="8" fill="rgb(220,220,220)" stroke-width="1" stroke="rgb(220,220,220)" />
	<rect x="68.1632" y="601.857" width="8" height="8" fill="rgb(220,220,220)" stroke-width="1" stroke="rgb(220,220,220)" />
	<rect x="486.917" y="621.675" width="8" height="8" fill="rgb(220,220,220)" stroke-width="1" stroke="rgb(220,220,220)" />
	<rect x="294.916" y="-5.96163" width="8" height="8" fill="rgb(220,220,220)" stroke-width="1" stroke="rgb(220,220,220)" />
	<rect x="14.0281" y="160.276" width="8" height="8" fill="rgb(220,220,220)" stroke-width="1" stroke="rgb(220,220,220)" />
	<rect x="133.177" y="598.344" width="8" height="8" fill="rgb(220,220,220)" stroke-width="1" stroke="rgb(220,220,220)" />
	<rect x="496.886" y="113.609" width="8" height="8" fill="rgb(220,220,220)" stroke-width="1" stroke="rgb(220,220,220)" />
	<rect x="301.806" y="167.23" width="8" height="8" fill="rgb(220,220,220)" stroke-width="1" stroke="rgb(220,220,220)" />
	<rect x="61.4054" y="146.425" width="8" height="8" fill="rgb(220,220,220)" stroke-width="1" stroke="rgb(220,220,220)" />
	<rect x="9.21927" y="103.415" width="8" height="8" fill="rgb(220,220,220)" stroke-width="1" stroke="rgb(220,220,220)" />
	<rect x="218.677" y="247.989" width="8" height="8" fill="rgb(220,220,220)" stroke-width="1" stroke="rgb(220,220,220)" />
	<rect x="778.247" y="257.569" width="8" height="8" fill="rgb(220,220,220)" stroke-width="1" stroke="rgb(220,220,220)" />
	<rect x="590.042" y="453.548" width="8" height="8" fill="rgb(220,220,220)" stroke-width="1" stroke="rgb(220,220,220)" />
	<rect x="368.832" y="563.686" width="8" height="8" fill="rgb(220,220,220)" stroke-width="1" stroke="rgb(220,220,220)" />
	<rect x="101.238" y="105.422" width="8" height="8" fill="rgb(220,220,220)" stroke-width="1" stroke="rgb(220,220,220)" />
	<rect x="292.293" y="750.742" width="8" height="8" fill="rgb(220,220,220)" stroke-width="1" stroke="rgb(220,220,220)" />
	<rect x="557.181" y="365.911" width="8" height="8" fill="rgb(220,220,220)" stroke-width="1" stroke="rgb(220,220,220)" />
	<rect x="726.95" y="443.88" width="8" height="8" fill="rgb(220,220,220)" stroke-width="1" stroke="rgb(220,220,220)" />
	<rect x="502.814" y="697.05" width="8" height="8" fill="rgb(220,220,220)" stroke-width="1" stroke="rgb(220,220,220)" />
	<rect x="499.362" y="731.993" width="8" height="8" fill="rgb(220,220,220)" stroke-width="1" stroke="rgb(220,220,220)" />
	<rect x="491.318" y="536.003" width="8" height="8" fill="rgb(220,220,220)" stroke-width="1" stroke="rgb(220,220,220)" />
	<rect x="119.126" y="40.4661" width="8" height="8" fill="rgb(220,220,220)" stroke-width="1" stroke="rgb(220,220,220)" />
	<rect x="234.104" y="228.022" width="8" height="8" fill="rgb(220,220,220)" stroke-width="1" stroke="rgb(220,220,220)" />
	<rect x="562.319" y="296.373" width="8" height="8" fill="rgb(220,220,220)" stroke-width="1" stroke="rgb(220,220,220)" />
	<rect x="442.129" y="329.702" width="8" height="8" fill="rgb(220,220,220)" stroke-width="1" stroke="rgb(220,220,220)" />
	<rect x="762.927" y="222.563" width="8" height="8" fill="rgb(220,220,220)" stroke-width="1" stroke="rgb(220,220,220)" />
	<rect x="300.23" y="777.28" width="8" height="8" fill="rgb(220,220,220)" stroke-width="1" stroke="rgb(220,220,220)" />
	<rect x="71.57" y="609.432" width="8" height="8" fill="rgb(220,220,220)" stroke-width="1" stroke="rgb(220,220,220)" />
	<rect x="228.678" y="369.1" width="8" height="8" fill="rgb(220,220,220)" stroke-width="1" stroke="rgb(220,220,220)" />
	<rect x="39.9088" y="498.444" width="8" height="8" fill="rgb(220,220,220)" stroke-width="1" stroke="rgb(220,220,220)" />
	<rect x="315.341" y="184.282" width="8" height="8" fill="rgb(220,220,220)" stroke-width="1" stroke="rgb(220,220,220)" />
	<rect x="68.3779" y="237.973" width="8" height="8" fill="rgb(220,220,220)" stroke-width="1" stroke="rgb(220,220,220)" />
	<rect x="5.53835" y="707.628" width="8" height="8" fill="rgb(220,220,220)" stroke-width="1" stroke="rgb(220,220,220)" />
	<rect x="737.398" y="639.911" width="8" height="8" fill="rgb(220,220,220)" stroke-width="1" stroke="rgb(220,220,220)" />
	<rect x="789.918" y="273.849" width="8" height="8" fill="rgb(220,220,220)" stroke-width="1" stroke="rgb(220,220,220)" />
	<rect x="449.071" y="162.435" width="8" height="8" fill="rgb(220,220,220)" stroke-width="1" stroke="rgb(220,220,220)" />
	<rect x="574.368" y="249.895" width="8" height="8" fill="rgb(220,220,220)" stroke-width="1" stroke="rgb(220,220,220)" />
	<rect x="272.299" y="741.946" width="8" height="8" fill="rgb(220,220,220)" stroke-width="1" stroke="rgb(220,220,220)" />
	<rect x="246.385" y="301.673" width="8" height="8" fill="rgb(220,220,220)" stroke-width="1" stroke="rgb(220,220,220)" />
	<rect x="763.137" y="773.035" width="8" height="8" fill="rgb(220,220,220)" stroke-width="1" stroke="rgb(220,220,220)" />
	<rect x="299.891" y="270.197" width="8" height="8" fill="rgb(220,220,220)" stroke-width="1" stroke="rgb(220,220,220)" />
	<rect x="128.417" y="25.8734" width="8" height="8" fill="rgb(220,220,220)" stroke-width="1" stroke="rgb(220,220,220)" />
	<rect x="84.5014" y="521.054" width="8" height="8" fill="rgb(220,220,220)" stroke-width="1" stroke="rgb(220,220,220)" />
	<rect x="647.91" y="583.139" width="8" height="8" fill="rgb(220,220,220)" stroke-width="1" stroke="rgb(220,220,220)" />
	<rect x="668.071" y="702.237" width="8" height="8" fill="rgb(220,220,220)" stroke-width="1" stroke="rgb(220,220,220)" />
	<rect x="476.076" y="677.662" width="8" height="8" fill="rgb(220,220,220)" stroke-width="1" stroke="rgb(220,220,220)" />
	<rect x="638.902" y="172.29" width="8" height="8" fill="rgb(220,220,220)" stroke-width="1" stroke="rgb(220,220,220)" />
	<rect x="498.513" y="241.908" width="8" height="8" fill="rgb(220,220,220)" stroke-width="1" stroke="rgb(220,220,220)" />
	<rect x="257.631" y="740.319" width="8" height="8" fill="rgb(220,220,220)" stroke-width="1" stroke="rgb(220,220,220)" />
	<rect x="777.782" y="348.417" width="8" height="8" fill="rgb(220,220,220)" stroke-width="1" stroke="rgb(220,220,220)" />
	<rect x="518.416" y="21.2581" width="8" height="8" fill="rgb(220,220,220)" stroke-width="1" stroke="rgb(220,220,220)" />
	<rect x="346.907" y="497.682" width="8" height="8" fill="rgb(220,220,220)" stroke-width="1" stroke="rgb(220,220,220)" />
	<rect x="125.988" y="537.751" width="8" height="8" fill="rgb(220,220,220)" stroke-width="1" stroke="rgb(220,220,220)" />
	<rect x="297.75" y="754.955" width="8" height="8" fill="rgb(220,220,220)" stroke-width="1" stroke="rgb(220,220,220)" />
	<rect x="569.562" y="75.5749" width="8" height="8" fill="rgb(220,220,220)" stroke-width="1" stroke="rgb(220,220,220)" />
	<rect x="561.24" y="707.704" width="8" height="8" fill="rgb(220,220,220)" stroke-width="1" stroke="rgb(220,220,220)" />
	<rect x="412.254" y="34.4913" width="8" height="8" fill="rgb(220,220,220)" stroke-width="1" stroke="rgb(220,220,220)" />
	<rect x="455.165" y="721.086" width="8" height="8" fill="rgb(220,220,220)" stroke-width="1" stroke="rgb(220,220,220)" />
	<rect x="753.165" y="576.972" width="8" height="8" fill="rgb(220,220,220)" stroke-width="1" stroke="rgb(220,220,220)" />
	<rect x="314.646" y="762.769" width="8" height="8" fill="rgb(220,220,220)" stroke-width="1" stroke="rgb(220,220,220)" />
	<rect x="506.233" y="512.415" width="8" height="8" fill="rgb(220,220,220)" stroke-width="1" stroke="rgb(220,220,220)" />
	<rect x="681.688" y="56.9611" width="8" height="8" fill="rgb(220,220,220)" stroke-width="1" stroke="rgb(220,220,220)" />
	<rect x="43.6485" y="157.481" width="8" height="8" fill="rgb(220,220,220)" stroke-width="1" stroke="rgb(220,220,220)" />
	<rect x="578.048" y="597.744" width="8" height="8" fill="rgb(220,220,220)" stroke-width="1" stroke="rgb(220,220,220)" />
	<rect x="538.187" y="118.275" width="8" height="8" fill="rgb(220,220,220)" stroke-width="1" stroke="rgb(220,220,220)" />
	<rect x="394.587" y="529.394" width="8" height="8" fill="rgb(220,220,220)" stroke-width="1" stroke="rgb(220,220,220)" />
	<rect x="75.5693" y="769.974" width="8" height="8" fill="rgb(220,220,220)" stroke-width="1" stroke="rgb(220,220,220)" />
	<rect x="430.014" y="415.663" width="8" height="8" fill="rgb(220,220,220)" stroke-width="1" stroke="rgb(220,220,220)" />
	<rect x="322.833" y="178.84" width="8" height="8" fill="rgb(220,220,220)" stroke-width="1" stroke="rgb(220,220,220)" />
	<rect x="231.922" y="736.097" width="8" height="8" fill="rgb(220,220,220)" stroke-width="1" stroke="rgb(220,220,220)" />
	<rect x="132.905" y="125.068" width="8" height="8" fill="rgb(220,220,220)" stroke-width="1" stroke="rgb(220,220,220)" />
	<rect x="617.065" y="390.589" width="8" height="8" fill="rgb(220,220,220)" stroke-width="1" stroke="rgb(220,220,220)" />
	<rect x="-7.57607" y="51.2918" width="8" height="8" fill="rgb(220,220,220)" stroke-width="1" stroke="rgb(220,220,220)" />
	<rect x="581.202" y="384.378" width="8" height="8" fill="rgb(220,220,220)" stroke-width="1" stroke="rgb(220,220,220)" />
	<rect x="329.276" y="83.6308" width="8" height="8" fill="rgb(220,220,220)" stroke-width="1" stroke="rgb(220,220,220)" />
	<rect x="525.371" y="251.319" width="8" height="8" fill="rgb(220,220,220)" stroke-width="1" stroke="rgb(220,220,220)" />
	<rect x="325.383" y="173.666" width="8" height="8" fill="rgb(220,220,220)" stroke-width="1" stroke="rgb(220,220,220)" />
	<rect x="426.569" y="357.034" width="8" height="8" fill="rgb(220,220,220)" stroke-width="1" stroke="rgb(220,220,220)" />
	<rect x="639.046" y="519.303" width="8" height="8" fill="rgb(220,220,220)" stroke-width="1" stroke="rgb(220,220,220)" />
	<rect x="0.957869" y="506.324" width="8" height="8" fill="rgb(220,220,220)" stroke-width="1" stroke="rgb(220,220,220)" />
	<rect x="785.039" y="38.5432" width="8" height="8" fill="rgb(220,220,220)" stroke-width="1" stroke="rgb(220,220,220)" />
	<rect x="381.524" y="154.398" width="8" height="8" fill="rgb(220,220,220)" stroke-width="1" stroke="rgb(220,220,220)" />
	<rect x="235.898" y="326.792" width="8" height="8" fill="rgb(220,220,220)" stroke-width="1" stroke="rgb(220,220,220)" />
	<rect x="665.897" y="202.756" width="8" height="8" fill="rgb(220,220,220)" stroke-width="1" stroke="rgb(220,220,220)" />
	<rect x="511.991" y="309.001" width="8" height="8" fill="rgb(220,220,220)" stroke-width="1" stroke="rgb(220,220,220)" />
	<rect x="228.257" y="142.047" width="8" height="8" fill="rgb(220,220,220)" stroke-width="1" stroke="rgb(220,220,220)" />
	<rect x="75.7138" y="213.992" width="8" height="8" fill="rgb(220,220,220)" stroke-width="1" stroke="rgb(220,220,220)" />
	<rect x="442.055" y="245.308" width="8" height="8" fill="rgb(220,220,220)" stroke-width="1" stroke="rgb(220,220,220)" />
	<rect x="267.205" y="100.835" width="8" height="8" fill="rgb(220,220,220)" stroke-width="1" stroke="rgb(220,220,220)" />
	<rect x="326.861" y="776.102" width="8" height="8" fill="rgb(220,220,220)" stroke-width="1" stroke="rgb(220,220,220)" />
	<rect x="191.123" y="280.432" width="8" height="8" fill="rgb(220,220,220)" stroke-width="1" stroke="rgb(220,220,220)" />
	<rect x="497.226" y="600.997" width="8" height="8" fill="rgb(220,220,220)" stroke-width="1" stroke="rgb(220,220,220)" />
	<rect x="5.02064" y="508.928" width="8" height="8" fill="rgb(220,220,220)" stroke-width="1" stroke="rgb(220,220,220)" />
	<rect x="300.58" y="625.034" width="8" height="8" fill="rgb(220,220,220)" stroke-width="1" stroke="rgb(220,220,220)" />
	<rect x="166.846" y="244.369" width="8" height="8" fill="rgb(220,220,220)" stroke-width="1" stroke="rgb(220,220,220)" />
	<rect x="640.395" y="596.822" width="8" height="8" fill="rgb(220,220,220)" stroke-width="1" stroke="rgb(220,220,220)" />
	<rect x="462.927" y="452.634" width="8" height="8" fill="rgb(220,220,220)" stroke-width="1" stroke="rgb(220,220,220)" />
	<rect x="723.763" y="210.318" width="8" height="8" fill="rgb(220,220,220)" stroke-width="1" stroke="rgb(220,220,220)" />
	<rect x="140.779" y="150.226" width="8" height="8" fill="rgb(220,220,220)" stroke-width="1" stroke="rgb(220,220,220)" />
	<rect x="269.688" y="78.161" width="8" height="8" fill="rgb(220,220,220)" stroke-width="1" stroke="rgb(220,220,220)" />
	<rect x="489.533" y="113.093" width="8" height="8" fill="rgb(220,220,220)" stroke-width="1" stroke="rgb(220,220,220)" />
	<rect x="730.194" y="152.921" width="8" height="8" fill="rgb(220,220,220)" stroke-width="1" stroke="rgb(220,220,220)" />
	<rect x="29.8208" y="396.585" width="8" height="8" fill="rgb(220,220,220)" stroke-width="1" stroke="rgb(220,220,220)" />
	<rect x="694.04" y="505.776" width="8" height="8" fill="rgb(220,220,220)" stroke-width="1" stroke="rgb(220,220,220)" />
	<rect x="137.771" y="593.839" width="8" height="8" fill="rgb(220,220,220)" stroke-width="1" stroke="rgb(220,220,220)" />
	<rect x="145.851" y="277.568" width="8" height="8" fill="rgb(220,220,220)" stroke-width="1" stroke="rgb(220,220,220)" />
	<rect x="513.754" y="773.442" width="8" height="8" fill="rgb(220,220,220)" stroke-width="1" stroke="rgb(220,220,220)" />
	<rect x="754.648" y="234.201" width="8" height="8" fill="rgb(220,220,220)" stroke-width="1" stroke="rgb(220,220,220)" />
	<rect x="174.006" y="69.155" width="8" height="8" fill="rgb(220,220,220)" stroke-width="1" stroke="rgb(220,220,220)" />
	<rect x="433.19" y="548.471" width="8" height="8" fill="rgb(220,220,220)" stroke-width="1" stroke="rgb(220,220,220)" />
	<rect x="51.6022" y="412.191" width="8" height="8" fill="rgb(220,220,220)" stroke-width="1" stroke="rgb(220,220,220)" />
	<rect x="679.633" y="448.68" width="8" height="8" fill="rgb(220,220,220)" stroke-width="1" stroke="rgb(220,220,220)" />
	<rect x="169.824" y="110.044" width="8" height="8" fill="rgb(220,220,220)" stroke-width="1" stroke="rgb(220,220,220)" />
	<rect x="478.668" y="599.298" width="8" height="8" fill="rgb(220,220,220)" stroke-width="1" stroke="rgb(220,220,220)" />
	<rect x="4.13472" y="47.3853" width="8" height="8" fill="rgb(220,220,220)" stroke-width="1" stroke="rgb(220,220,220)" />
	<rect x="275.918" y="778.307" width="8" height="8" fill="rgb(220,220,220)" stroke-width="1" stroke="rgb(220,220,220)" />
	<rect x="524.382" y="638.744" width="8" height="8" fill="rgb(220,220,220)" stroke-width="1" stroke="rgb(220,220,220)" />
	<rect x="136.888" y="167.6" width="8" height="8" fill="rgb(220,220,220)" stroke-width="1" stroke="rgb(220,220,220)" />
	<rect x="62.4352" y="708.787" width="8" height="8" fill="rgb(220,220,220)" stroke-width="1" stroke="rgb(220,220,220)" />
	<rect x="488.427" y="713.784" width="8" height="8" fill="rgb(220,220,220)" stroke-width="1" stroke="rgb(220,220,220)" />
	<rect x="112.275" y="366.042" width="8" height="8" fill="rgb(220,220,220)" stroke-width="1" stroke="rgb(220,220,220)" />
	<rect x="89.1251" y="181.598" width="8" height="8" fill="rgb(220,220,220)" stroke-width="1" stroke="rgb(220,220,220)" />
	<rect x="200.289" y="27.1714" width="8" height="8" fill="rgb(220,220,220)" stroke-width="1" stroke="rgb(220,220,220)" />
	<rect x="190.952" y="583.917" width="8" height="8" fill="rgb(220,220,220)" stroke-width="1" stroke="rgb(220,220,220)" />
	<rect x="518.25" y="422.506" width="8" height="8" fill="rgb(220,220,220)" stroke-width="1" stroke="rgb(220,220,220)" />
	<rect x="437.496" y="616.831" width="8" height="8" fill="rgb(220,220,220)" stroke-width="1" stroke="rgb(220,220,220)" />
	<rect x="84.6935" y="107.406" width="8" height="8" fill="rgb(220,220,220)" stroke-width="1" stroke="rgb(220,220,220)" />
	<rect x="680.795" y="171.745" width="8" height="8" fill="rgb(220,220,220)" stroke-width="1" stroke="rgb(220,220,220)" />
	<rect x="-5.11686" y="605.6" width="8" height="8" fill="rgb(220,220,220)" stroke-width="1" stroke="rgb(220,220,220)" />
	<rect x="756.604" y="618.423" width="8" height="8" fill="rgb(220,220,220)" stroke-width="1" stroke="rgb(220,220,220)" />
	<rect x="640.057" y="250.086" width="8" height="8" fill="rgb(220,220,220)" stroke-width="1" stroke="rgb(220,220,220)" />
	<rect x="34.4226" y="198.031" width="8" height="8" fill="rgb(220,220,220)" stroke-width="1" stroke="rgb(220,220,220)" />
	<rect x="276.117" y="281.321" width="8" height="8" fill="rgb(220,220,220)" stroke-width="1" stroke="rgb(220,220,220)" />
	<rect x="499.637" y="347.872" width="8" height="8" fill="rgb(220,220,220)" stroke-width="1" stroke="rgb(220,220,220)" />
	<rect x="728.241" y="173.332" width="8" height="8" fill="rgb(220,220,220)" stroke-width="1" stroke="rgb(220,220,220)" />
	<rect x="791.498" y="341.305" width="8" height="8" fill="rgb(220,220,220)" stroke-width="1" stroke="rgb(220,220,220)" />
	<rect x="21.0744" y="191.852" width="8" height="8" fill="rgb(220,220,220)" stroke-width="1" stroke="rgb(220,220,220)" />
	<circle cx="640" cy="160" r="8" fill="rgb(0,128,0)" stroke-width="1" stroke="rgb(0,128,0)" />
	<circle cx="160" cy="640" r="8" fill="rgb(0,0,255)" stroke-width="1" stroke="rgb(0,0,255)" />
	<polyline points="160,640 184,640 " fill="none" stroke-width="3" stroke="rgb(0,0,0)" />
	<polyline points="160,640 232.711,584.302 " fill="none" stroke-width="1" stroke="rgb(0,0,0)" />
	<circle cx="232.711" cy="584.302" r="8" fill="rgb(0,0,255)" stroke-width="1" stroke="rgb(0,0,255)" />
	<polyline points="232.711,584.302 236.79,560.651 " fill="none" stroke-width="3" stroke="rgb(0,0,0)" />
	<polyline points="232.711,584.302 320.547,471.623 " fill="none" stroke-width="1" stroke="rgb(0,0,0)" />
	<circle cx="320.547" cy="471.623" r="8" fill="rgb(153,99,102)" stroke-width="1" stroke="rgb(153,99,102)" />
	<polyline points="320.547,471.623 339.506,456.908 " fill="none" stroke-width="3" stroke="rgb(0,0,0)" />
	<polyline points="320.547,471.623 405.779,402.357 " fill="none" stroke-width="1" stroke="rgb(0,0,0)" />
	<circle cx="405.779" cy="402.357" r="8" fill="rgb(153,99,102)" stroke-width="1" stroke="rgb(153,99,102)" />
	<polyline points="405.779,402.357 421.438,384.169 " fill="none" stroke-width="3" stroke="rgb(0,0,0)" />
	<polyline points="405.779,402.357 479.832,326.913 " fill="none" stroke-width="1" stroke="rgb(0,0,0)" />
	<circle cx="479.832" cy="326.913" r="8" fill="rgb(255,165,0)" stroke-width="1" stroke="rgb(255,165,0)" />
	<polyline points="479.832,326.913 499.083,312.58 " fill="none" stroke-width="3" stroke="rgb(0,0,0)" />
	<polyline points="479.832,326.913 576.921,271.092 " fill="none" stroke-width="1" stroke="rgb(0,0,0)" />
	<circle cx="576.921" cy="271.092" r="8" fill="rgb(153,99,102)" stroke-width="1" stroke="rgb(153,99,102)" />
	<polyline points="576.921,271.092 596.313,256.953 " fill="none" stroke-width="3" stroke="rgb(0,0,0)" />
	<polyline points="576.921,271.092 655.889,177.04 " fill="none" stroke-width="1" stroke="rgb(0,0,0)" />
	<circle cx="655.889" cy="177.04" r="8" fill="rgb(101,65,153)" stroke-width="1" stroke="rgb(101,65,153)" />
	<polyline points="655.889,177.04 666.776,155.651 " fill="none" stroke-width="3" stroke="rgb(0,0,0)" />
</svg>
