<?xml version="1.0" standalone="no" ?>
<!DOCTYPE svg PUBLIC "-//W3C//DTD SVG 1.1//EN" "http://www.w3.org/Graphics/SVG/1.1/DTD/svg11.dtd">
<svg width="800px" height="800px" xmlns="http://www.w3.org/2000/svg" version="1.1" >
	<rect x="0" y="0" width="800" height="800" fill="rgb(255,255,255)" stroke-width="2" stroke="rgb(0,0,0)" />
	<circle cx="720" cy="80" r="8" fill="rgb(0,128,0)" stroke-width="1" stroke="rgb(0,128,0)" />
	<circle cx="400" cy="400" r="8" fill="rgb(0,0,255)" stroke-width="1" stroke="rgb(0,0,255)" />
	<polyline points="400,400 424,400 " fill="none" stroke-width="3" stroke="rgb(0,0,0)" />
	<polyline points="400,400 482.734,312.737 " fill="none" stroke-width="1" stroke="rgb(0,0,0)" />
	<circle cx="482.734" cy="312.737" r="8" fill="rgb(0,0,255)" stroke-width="1" stroke="rgb(0,0,255)" />
	<polyline points="482.734,312.737 483.712,288.757 " fill="none" stroke-width="3" stroke="rgb(0,0,0)" />
	<polyline points="482.734,312.737 560.145,249.508 " fill="none" stroke-width="1" stroke="rgb(0,0,0)" />
	<circle cx="560.145" cy="249.508" r="8" fill="rgb(0,0,255)" stroke-width="1" stroke="rgb(0,0,255)" />
	<polyline points="560.145,249.508 584.126,250.468 " fill="none" stroke-width="3" stroke="rgb(0,0,0)" />
	<polyline points="560.145,249.508 638.955,160.989 " fill="none" stroke-width="1" stroke="rgb(0,0,0)" />
	<circle cx="638.955" cy="160.989" r="8" fill="rgb(0,0,255)" stroke-width="1" stroke="rgb(0,0,255)" />
	<polyline points="638.955,160.989 635.862,137.189 " fill="none" stroke-width="3" stroke="rgb(0,0,0)" />
	<polyline points="638.955,160.989 707.124,71.7174 " fill="none" stroke-width="1" stroke="rgb(0,0,0)" />
	<circle cx="707.124" cy="71.7174" r="8" fill="rgb(0,0,255)" stroke-width="1" stroke="rgb(0,0,255)" />
	<polyline points="707.124,71.7174 731.094,70.5179 " fill="none" stroke-width="3" stroke="rgb(0,0,0)" />
	<circle cx="720" cy="400" r="8" fill="rgb(0,128,0)" stroke-width="1" stroke="rgb(0,128,0)" />
	<circle cx="400" cy="400" r="8" fill="rgb(0,0,255)" stroke-width="1" stroke="rgb(0,0,255)" />
	<polyline points="400,400 424,400 " fill="none" stroke-width="3" stroke="rgb(0,0,0)" />
	<polyline points="400,400 479.007,403.079 " fill="none" stroke-width="1" stroke="rgb(0,0,0)" />
	<circle cx="479.007" cy="403.079" r="8" fill="rgb(0,0,255)" stroke-width="1" stroke="rgb(0,0,255)" />
	<polyline points="479.007,403.079 502.834,405.952 " fill="none" stroke-width="3" stroke="rgb(0,0,0)" />
	<polyline points="479.007,403.079 557.836,402.3 " fill="none" stroke-width="1" stroke="rgb(0,0,0)" />
	<circle cx="557.836" cy="402.3" r="8" fill="rgb(0,0,255)" stroke-width="1" stroke="rgb(0,0,255)" />
	<polyline points="557.836,402.3 581.53,398.476 " fill="none" stroke-width="3" stroke="rgb(0,0,0)" />
	<polyline points="557.836,402.3 645.445,400.855 " fill="none" stroke-width="1" stroke="rgb(0,0,0)" />
	<circle cx="645.445" cy="400.855" r="8" fill="rgb(0,0,255)" stroke-width="1" stroke="rgb(0,0,255)" />
	<polyline points="645.445,400.855 669.44,401.335 " fill="none" stroke-width="3" stroke="rgb(0,0,0)" />
	<polyline points="645.445,400.855 723.363,405.719 " fill="none" stroke-width="1" stroke="rgb(0,0,0)" />
	<circle cx="723.363" cy="405.719" r="8" fill="rgb(0,0,255)" stroke-width="1" stroke="rgb(0,0,255)" />
	<polyline points="723.363,405.719 747.359,406.199 " fill="none" stroke-width="3" stroke="rgb(0,0,0)" />
	<circle cx="720" cy="720" r="8" fill="rgb(0,128,0)" stroke-width="1" stroke="rgb(0,128,0)" />
	<circle cx="400" cy="400" r="8" fill="rgb(0,0,255)" stroke-width="1" stroke="rgb(0,0,255)" />
	<polyline points="400,400 424,400 " fill="none" stroke-width="3" stroke="rgb(0,0,0)" />
	<polyline points="400,400 487.029,474.597 " fill="none" stroke-width="1" stroke="rgb(0,0,0)" />
	<circle cx="487.029" cy="474.597" r="8" fill="rgb(0,0,255)" stroke-width="1" stroke="rgb(0,0,255)" />
	<polyline points="487.029,474.597 490.634,498.325 " fill="none" stroke-width="3" stroke="rgb(0,0,0)" />
	<polyline points="487.029,474.597 563.084,572.655 " fill="none" stroke-width="1" stroke="rgb(0,0,0)" />
	<circle cx="563.084" cy="572.655" r="8" fill="rgb(0,0,255)" stroke-width="1" stroke="rgb(0,0,255)" />
	<polyline points="563.084,572.655 585.71,580.659 " fill="none" stroke-width="3" stroke="rgb(0,0,0)" />
	<polyline points="563.084,572.655 640.428,643.279 " fill="none" stroke-width="1" stroke="rgb(0,0,0)" />
	<circle cx="640.428" cy="643.279" r="8" fill="rgb(0,0,255)" stroke-width="1" stroke="rgb(0,0,255)" />
	<polyline points="640.428,643.279 650.012,665.283 " fill="none" stroke-width="3" stroke="rgb(0,0,0)" />
	<polyline points="640.428,643.279 713.384,723.923 " fill="none" stroke-width="1" stroke="rgb(0,0,0)" />
	<circle cx="713.384" cy="723.923" r="8" fill="rgb(0,0,255)" stroke-width="1" stroke="rgb(0,0,255)" />
	<polyline points="713.384,723.923 735.298,733.709 " fill="none" stroke-width="3" stroke="rgb(0,0,0)" />
	<circle cx="400" cy="80" r="8" fill="rgb(0,128,0)" stroke-width="1" stroke="rgb(0,128,0)" />
	<circle cx="400" cy="400" r="8" fill="rgb(0,0,255)" stroke-width="1" stroke="rgb(0,0,255)" />
	<polyline points="400,400 424,400 " fill="none" stroke-width="3" stroke="rgb(0,0,0)" />
	<polyline points="400,400 404,317.22 " fill="none" stroke-width="1" stroke="rgb(0,0,0)" />
	<circle cx="404" cy="317.22" r="8" fill="rgb(0,0,255)" stroke-width="1" stroke="rgb(0,0,255)" />
	<polyline points="404,317.22 387.307,299.977 " fill="none" stroke-width="3" stroke="rgb(0,0,0)" />
	<polyline points="404,317.22 394.354,242.281 " fill="none" stroke-width="1" stroke="rgb(0,0,0)" />
	<circle cx="394.354" cy="242.281" r="8" fill="rgb(0,0,255)" stroke-width="1" stroke="rgb(0,0,255)" />
	<polyline points="394.354,242.281 410.013,224.093 " fill="none" stroke-width="3" stroke="rgb(0,0,0)" />
	<polyline points="394.354,242.281 396.011,153.484 " fill="none" stroke-width="1" stroke="rgb(0,0,0)" />
	<circle cx="396.011" cy="153.484" r="8" fill="rgb(0,0,255)" stroke-width="1" stroke="rgb(0,0,255)" />
	<polyline points="396.011,153.484 380.749,134.962 " fill="none" stroke-width="3" stroke="rgb(0,0,0)" />
	<polyline points="396.011,153.484 401.478,70.0646 " fill="none" stroke-width="1" stroke="rgb(0,0,0)" />
	<circle cx="401.478" cy="70.0646" r="8" fill="rgb(0,0,255)" stroke-width="1" stroke="rgb(0,0,255)" />
	<polyline points="401.478,70.0646 420.14,54.9736 " fill="none" stroke-width="3" stroke="rgb(0,0,0)" />
	<circle cx="400" cy="720" r="8" fill="rgb(0,128,0)" stroke-width="1" stroke="rgb(0,128,0)" />
	<circle cx="400" cy="400" r="8" fill="rgb(0,0,255)" stroke-width="1" stroke="rgb(0,0,255)" />
	<polyline points="400,400 424,400 " fill="none" stroke-width="3" stroke="rgb(0,0,0)" />
	<polyline points="400,400 399.205,473.458 " fill="none" stroke-width="1" stroke="rgb(0,0,0)" />
	<circle cx="399.205" cy="473.458" r="8" fill="rgb(0,0,255)" stroke-width="1" stroke="rgb(0,0,255)" />
	<polyline points="399.205,473.458 378.396,461.5 " fill="none" stroke-width="3" stroke="rgb(0,0,0)" />
	<polyline points="399.205,473.458 421.713,552.672 " fill="none" stroke-width="1" stroke="rgb(0,0,0)" />
	<circle cx="421.713" cy="552.672" r="8" fill="rgb(0,0,255)" stroke-width="1" stroke="rgb(0,0,255)" />
	<polyline points="421.713,552.672 441.384,538.923 " fill="none" stroke-width="3" stroke="rgb(0,0,0)" />
	<polyline points="421.713,552.672 396.346,639.689 " fill="none" stroke-width="1" stroke="rgb(0,0,0)" />
	<circle cx="396.346" cy="639.689" r="8" fill="rgb(0,0,255)" stroke-width="1" stroke="rgb(0,0,255)" />
	<polyline points="396.346,639.689 386.577,617.767 " fill="none" stroke-width="3" stroke="rgb(0,0,0)" />
	<polyline points="396.346,639.689 399.828,732.012 " fill="none" stroke-width="1" stroke="rgb(0,0,0)" />
	<circle cx="399.828" cy="732.012" r="8" fill="rgb(0,0,255)" stroke-width="1" stroke="rgb(0,0,255)" />
	<polyline points="399.828,732.012 408.3,709.558 " fill="none" stroke-width="3" stroke="rgb(0,0,0)" />
	<circle cx="80" cy="80" r="8" fill="rgb(0,128,0)" stroke-width="1" stroke="rgb(0,128,0)" />
	<circle cx="400" cy="400" r="8" fill="rgb(0,0,255)" stroke-width="1" stroke="rgb(0,0,255)" />
	<polyline points="400,400 424,400 " fill="none" stroke-width="3" stroke="rgb(0,0,0)" />
	<polyline points="400,400 328.069,315.774 " fill="none" stroke-width="1" stroke="rgb(0,0,0)" />
	<circle cx="328.069" cy="315.774" r="8" fill="rgb(0,0,255)" stroke-width="1" stroke="rgb(0,0,255)" />
	<polyline points="328.069,315.774 322.616,339.147 " fill="none" stroke-width="3" stroke="rgb(0,0,0)" />
	<polyline points="328.069,315.774 240.351,229.163 " fill="none" stroke-width="1" stroke="rgb(0,0,0)" />
	<circle cx="240.351" cy="229.163" r="8" fill="rgb(0,0,255)" stroke-width="1" stroke="rgb(0,0,255)" />
	<polyline points="240.351,229.163 264.331,228.203 " fill="none" stroke-width="3" stroke="rgb(0,0,0)" />
	<polyline points="240.351,229.163 155.649,172.162 " fill="none" stroke-width="1" stroke="rgb(0,0,0)" />
	<circle cx="155.649" cy="172.162" r="8" fill="rgb(0,0,255)" stroke-width="1" stroke="rgb(0,0,255)" />
	<polyline points="155.649,172.162 159.964,195.77 " fill="none" stroke-width="3" stroke="rgb(0,0,0)" />
	<polyline points="155.649,172.162 89.581,66.572 " fill="none" stroke-width="1" stroke="rgb(0,0,0)" />
	<circle cx="89.581" cy="66.572" r="8" fill="rgb(0,0,255)" stroke-width="1" stroke="rgb(0,0,255)" />
	<polyline points="89.581,66.572 110.409,78.4971 " fill="none" stroke-width="3" stroke="rgb(0,0,0)" />
	<circle cx="80" cy="400" r="8" fill="rgb(0,128,0)" stroke-width="1" stroke="rgb(0,128,0)" />
	<circle cx="400" cy="400" r="8" fill="rgb(0,0,255)" stroke-width="1" stroke="rgb(0,0,255)" />
	<polyline points="400,400 424,400 " fill="none" stroke-width="3" stroke="rgb(0,0,0)" />
	<polyline points="400,400 316.011,404.203 " fill="none" stroke-width="1" stroke="rgb(0,0,0)" />
	<circle cx="316.011" cy="404.203" r="8" fill="rgb(0,0,255)" stroke-width="1" stroke="rgb(0,0,255)" />
	<polyline points="316.011,404.203 339.952,405.882 " fill="none" stroke-width="3" stroke="rgb(0,0,0)" />
	<polyline points="316.011,404.203 241.272,409.442 " fill="none" stroke-width="1" stroke="rgb(0,0,0)" />
	<circle cx="241.272" cy="409.442" r="8" fill="rgb(0,0,255)" stroke-width="1" stroke="rgb(0,0,255)" />
	<polyline points="241.272,409.442 265.262,408.722 " fill="none" stroke-width="3" stroke="rgb(0,0,0)" />
	<polyline points="241.272,409.442 154.808,408.509 " fill="none" stroke-width="1" stroke="rgb(0,0,0)" />
	<circle cx="154.808" cy="408.509" r="8" fill="rgb(0,0,255)" stroke-width="1" stroke="rgb(0,0,255)" />
	<polyline points="154.808,408.509 178.711,410.666 " fill="none" stroke-width="3" stroke="rgb(0,0,0)" />
	<polyline points="154.808,408.509 70.9897,401.014 " fill="none" stroke-width="1" stroke="rgb(0,0,0)" />
	<circle cx="70.9897" cy="401.014" r="8" fill="rgb(0,0,255)" stroke-width="1" stroke="rgb(0,0,255)" />
	<polyline points="70.9897,401.014 94.9129,402.932 " fill="none" stroke-width="3" stroke="rgb(0,0,0)" />
	<circle cx="80" cy="720" r="8" fill="rgb(0,128,0)" stroke-width="1" stroke="rgb(0,128,0)" />
	<circle cx="400" cy="400" r="8" fill="rgb(0,0,255)" stroke-width="1" stroke="rgb(0,0,255)" />
	<polyline points="400,400 424,400 " fill="none" stroke-width="3" stroke="rgb(0,0,0)" />
	<polyline points="400,400 323.003,490.456 " fill="none" stroke-width="1" stroke="rgb(0,0,0)" />
	<circle cx="323.003" cy="490.456" r="8" fill="rgb(0,0,255)" stroke-width="1" stroke="rgb(0,0,255)" />
	<polyline points="323.003,490.456 320.387,466.599 " fill="none" stroke-width="3" stroke="rgb(0,0,0)" />
	<polyline points="323.003,490.456 251.395,578.031 " fill="none" stroke-width="1" stroke="rgb(0,0,0)" />
	<circle cx="251.395" cy="578.031" r="8" fill="rgb(0,0,255)" stroke-width="1" stroke="rgb(0,0,255)" />
	<polyline points="251.395,578.031 275.376,577.072 " fill="none" stroke-width="3" stroke="rgb(0,0,0)" />
	<polyline points="251.395,578.031 149.997,631.822 " fill="none" stroke-width="1" stroke="rgb(0,0,0)" />
	<circle cx="149.997" cy="631.822" r="8" fill="rgb(0,0,255)" stroke-width="1" stroke="rgb(0,0,255)" />
	<polyline points="149.997,631.822 162.964,611.627 " fill="none" stroke-width="3" stroke="rgb(0,0,0)" />
	<polyline points="149.997,631.822 98.6099,728.479 " fill="none" stroke-width="1" stroke="rgb(0,0,0)" />
	<circle cx="98.6099" cy="728.479" r="8" fill="rgb(0,0,255)" stroke-width="1" stroke="rgb(0,0,255)" />
	<polyline points="98.6099,728.479 112.57,708.957 " fill="none" stroke-width="3" stroke="rgb(0,0,0)" />
</svg>
